# xmcd CD database file
#
# Track frame offsets:
#	150
#	21442
#	54822
#	74712
#	111311
#	142747
#	170194
#	185926
#	208889
#	234479
#	259825
#	286956
#	318489
#
# Disc length: 4692 seconds
#
# Revision: 1
# Processed by: cddbd v1.5.2PL0 Copyright (c) Steve Scherf et al.
# Submitted via: CDex 1.70beta2
#
DISCID=d012520d
DTITLE=Rose Karen - Todesbräute CD 3
DYEAR=2010
DGENRE=Hörbch
TTITLE0=Todesbräute 26
TTITLE1=Todesbräute 27
TTITLE2=Todesbräute 28
TTITLE3=Todesbräute 29
TTITLE4=Todesbräute 30
TTITLE5=Todesbräute 31
TTITLE6=Todesbräute 32
TTITLE7=Todesbräute 33
TTITLE8=Todesbräute 34
TTITLE9=Todesbräute 35
TTITLE10=Todesbräute 36
TTITLE11=Todesbräute 37
TTITLE12=Todesbräute 38
EXTD=gelesen von Nicole Engeln YEAR: 2010
EXTT0=
EXTT1=
EXTT2=
EXTT3=
EXTT4=
EXTT5=
EXTT6=
EXTT7=
EXTT8=
EXTT9=
EXTT10=
EXTT11=
EXTT12=
PLAYORDER=
